<svg width="630" height="414" viewBox="0 0 630 414" fill="none" xmlns="http://www.w3.org/2000/svg">
<path opacity="0.15" d="M604.545 0C618.603 0 629.999 11.4064 629.999 25.4769V388.523C629.999 402.593 618.603 414 604.545 414H25.4545C11.3966 413.999 1.28124e-08 402.593 0 388.523V25.4769C0 11.4065 11.3966 0.000249471 25.4545 0H604.545ZM553.26 2.02615C544.835 -1.93195 532.198 1.07573 521.754 1.38549C568.467 49.0754 566.972 50.8999 586.158 110.712C595.03 138.391 604.544 164.528 608.528 193.501C620.276 278.982 577.678 350.112 523.465 412.443C532.819 412.457 543.622 415.939 551.467 412.443C591.506 394.588 591.651 354.174 618.021 314.701L619.297 312.815C627.576 300.817 630.106 286.85 629.906 272.043L628.059 132.67C627.852 117.168 619.862 101.99 615.684 87.4726C610.169 68.3017 596.801 53.7973 584.02 39.4173C573.197 27.2403 565.641 12.7232 553.26 2.02615ZM257.812 1.34351C188.343 -2.43555 198.422 -0.0869669 146.862 44.1678C129.4 59.1604 119.631 77.4572 109.662 97.4541C95.5299 125.794 82.6792 153.727 77.681 184.263L77.1994 190.431C75.7036 196.716 77.7497 204.034 77.1637 210.346C77.2535 214.434 78.9089 218.33 79.1228 222.295L79.5283 229.888C81.4448 230.011 81.2388 232.979 81.2388 234.411C81.2389 239.704 82.824 244.799 83.5133 250.037C84.7336 249.335 85.0785 251.345 85.0716 252.171C85.044 254.71 85.1061 257.236 85.561 259.742C87.0983 259.301 86.8918 261.601 87.1193 262.538C87.4912 264.066 86.4719 266.324 87.1612 267.748C90.5046 274.095 92.5449 281.068 93.3446 288.172C93.6342 290.78 99.7206 295.034 95.6409 298.4C93.3315 300.314 91.3806 295.359 91.6838 293.989C90.7256 293.638 90.0634 292.804 89.9531 291.785L90.0976 288.441C85.651 282.672 84.9544 275.141 82.707 268.353L71.4697 234.425C70.1052 235.229 69.9043 233.178 69.6286 232.276L67.8031 226.356C65.3214 225.764 65.8035 222.289 65.4727 220.286C64.7007 219.356 64.3692 217.505 63.8523 216.362C60.3363 208.604 56.9038 197.707 61.7502 190.287C61.8605 189.64 61.7363 188.957 61.7984 188.296L62.1775 184.463L62.2598 180.958C62.2805 179.946 62.3909 177.58 63.9486 178.385L83.2445 113.858C89.8489 91.775 95.8954 70.1878 111.269 52.6207C128.214 33.2504 149.564 19.4899 172.217 7.67075C175.209 6.10816 177.906 4.70255 179.319 0.345207C113.882 0.661854 141.664 -1.81604 106.891 28.3412C92.5444 40.7799 79.1699 53.5973 69.5805 68.7895C69.1668 69.4039 68.7034 69.9842 68.1946 70.5202L67.6648 71.0411C34.6498 114.924 26.115 171.061 40.5992 224.753C49.3958 257.354 39.9788 291.318 62.1635 325.227C72.8282 341.527 85.3816 355.941 98.397 370.603C111.399 385.244 122.981 400.045 138.1 412.959C150.378 413.599 161.925 413.736 174.038 412.807C151.75 395.832 130.089 387.055 117.328 360.346C119.389 364.655 84.2788 289.033 98.9004 300.115C113.564 335.724 136.239 364.505 167.055 386.223C219.972 423.518 216.284 412.064 285.65 412.766C268.892 408.251 256.262 401.257 242.84 395.186C222.007 385.762 201.759 374.403 183.366 360.766C176.238 355.479 167.585 352.21 159.899 345.333C148.8 335.414 137.645 324.971 130.813 310.832C118.08 284.475 111.166 256.521 104.313 227.865C99.8321 209.12 96.9983 190.52 101.417 171.549C107.966 143.429 121.624 118.951 134.137 93.3987C142.885 75.5359 152.364 60.3364 170.35 50.0799C176.644 46.4935 182.132 40.533 189.074 39.0255C188.474 37.573 190.501 37.4564 191.453 37.1673C211.893 22.8012 235.083 14.3741 257.812 1.34351ZM628.921 346.126C621.51 363.053 613.602 375.87 602.662 388.226C595.61 396.19 588.088 402.977 583.903 413.213C601.917 414.789 626.626 413.75 628.949 393.278C630.817 376.819 629.666 361.139 628.921 346.126ZM2.10982 352.644C-1.87456 362.033 1.49013 370.5 0.30451 379.697C-1.66716 394.978 6.0195 409.627 21.9169 412.815C28.921 414.219 36.0499 413.344 43.3849 413.034C40.1921 405.27 35.6108 399.274 30.1371 393.399L29.0247 392.219C18.022 380.675 10.9616 367.141 2.10982 352.644ZM506.208 1.00608C489.174 0.448502 474.083 -0.47983 455.697 1.62652C486.223 19.2624 509.057 42.281 527.78 71.3023C556.439 115.736 579.65 174.186 566.29 226.013L565.787 228.256C566.269 229.186 565.386 230.714 565.703 231.76C565.937 232.545 565.607 233.454 565.173 234.349C564.684 235.361 563.938 235.911 562.973 234.851C563.035 237.26 562.485 239.662 562.319 242.051C562.112 244.99 562.415 249.596 558.851 250.333C559.265 252.033 558.335 254.187 558.314 255.921C558.286 257.986 558.665 261.883 555.969 262.186C555.673 264.609 554.101 267.355 554.046 269.916C554.032 270.749 553.536 273.062 552.295 272.099C547.766 288.138 538.99 302.497 532.103 317.634C529.252 323.913 524.251 329.097 520.729 334.933L520.051 336.102C506.381 360.608 485.127 390.911 460.192 410.818C467.541 411.493 478.743 415.739 486.664 412.126C513.309 399.983 533.329 378.451 549.951 355.535C555.328 348.128 559.058 342.415 562.022 333.618L581.312 276.346C604.028 208.907 603.103 155.414 566.048 93.5231C552.804 58.5267 533.253 27.2465 506.208 1.00608ZM106.361 1.3575C94.6965 1.01333 82.2663 -1.1544 71.5877 1.38549C55.2491 13.7209 41.5779 30.5856 30.844 48.3041C26.3285 55.7384 1.82715 121.375 1.7789 126.999C1.27563 186.329 -0.88207 244.385 2.55105 303.997C4.0677 330.375 25.5011 353.05 41.9431 370.651C64.8034 395.129 65.5552 414.439 79.7085 413.399C90.9041 412.573 101.066 414.989 112.737 412.092C102.313 400.424 95.1019 389.575 87.8495 377.611C73.0896 353.257 47.886 333.859 31.2371 299.214C23.1298 282.342 23.095 238.175 17.9521 212.843C10.7413 177.311 21.1312 165.966 31.279 137.73L55.545 70.2154C69.7672 30.6551 78.206 31.1362 106.361 1.3575ZM372.046 1.83333C400.483 12.1932 427.163 24.8519 448.734 44.7043C450.314 44.8187 451.182 45.9865 452.169 46.9777L452.595 47.3882C470.381 63.138 487.058 81.6834 497.109 105.859C483.369 95.795 477.964 81.2915 465.727 69.3897C428.328 32.9891 378.616 7.88302 325.002 5.19832C249.61 1.42609 174.762 42.3772 139.562 109.045C109.111 166.709 104.278 243.545 137.52 299.812C150.453 321.702 166.737 344.5 186.998 359.444C203.53 371.642 223.812 384.653 243.067 391.936C276.944 404.746 315.184 409.2 351.163 401.937C386.509 394.799 417.684 378.196 446.79 358.13C485.148 331.683 507.339 269.697 516.218 225.992C520.217 206.305 519.101 187.546 516.419 168.864C515.116 169.504 514.971 167.379 514.951 166.545C514.896 163.902 514.901 161.244 514.44 158.635C513.075 159.626 513.02 157.238 512.827 156.425C512.441 154.808 513.489 152.447 512.841 150.939L501.618 121.939C499.673 116.914 495.517 112.626 499.584 106.534C504.734 121.767 513.689 135.63 517.929 151.036C526.057 180.594 531.337 210.586 525.532 242.03C516.832 289.128 482.859 364.235 435.952 384.652C411.934 398.53 386.123 404.699 358.347 412.622L426.018 413.295C462.597 394.179 492.276 367.567 516.688 335.717C519.535 330.809 524.312 322.839 526.938 317.628C542.774 286.19 553.528 252.721 552.398 216.252C551.653 192.173 545.912 170.179 540.707 147.036C530.717 102.596 517.129 62.265 478.048 35.3293L427.246 0.318772L372.046 1.83333ZM258.151 28.0457C280.922 21.2722 304.603 16.7297 328.973 19.5726C366.524 23.9507 401.593 38.6813 430.796 60.6056C432.519 60.7433 433.416 62.347 434.698 63.1387C443.86 68.7626 451.237 76.9063 458.296 84.9738C458.938 85.7101 460.068 86.1234 460.613 86.9424C471.919 104.055 483.424 120.975 491.766 140.882C501.686 164.555 507.732 190.432 504.189 216.362C500.473 243.559 491.366 268.643 478.874 292.735C456.986 334.96 419.525 366.019 374.921 379.078C369.565 380.645 364.649 383.775 358.931 384.99L358.381 385.094C329.8 390.484 302.176 391.24 272.636 383.662C222.42 370.782 178.719 340.447 150.771 296.921C120.265 249.417 121.168 178.777 148.882 132.732C150.705 129.703 154.018 124.124 155.093 120.878C155.066 121.638 155.26 121.974 155.639 121.959C155.491 121.6 155.314 121.234 155.098 120.866L155.101 120.858C159.024 108.929 174.582 89.7161 182.731 79.1566C201.475 54.8573 227.225 37.2354 258.151 28.0457ZM321.017 34.544C301.197 32.1485 281.756 33.1051 263.494 40.9661C240.855 50.7063 200.057 65.9744 183.821 82.9974C183.137 83.7187 159.555 121.801 155.639 121.959C157.402 126.243 154.623 129.916 153.178 133.626L152.887 134.446C136.969 182.934 128.214 221.07 156.748 270.494L180.111 310.957C189.466 327.161 202.2 341.837 219.972 349.436C244.26 359.824 268.906 367.506 294.296 374.823C310.655 379.538 326.766 381.638 342.726 381.576C344.883 378.272 349.503 379.855 352.86 380.014C354.418 380.083 357.071 380.398 358.54 380.068C362.718 376.805 370.129 378.409 374.603 376.165C402.827 361.999 427.584 342.277 449.755 318.99C463.735 304.3 472.532 288.949 479.074 269.757C503.127 199.187 487.712 149.122 447.886 89.7849C439.151 76.7681 428.225 65.162 414.981 58.8842C414.044 58.4368 413.347 57.5351 412.637 56.8192C412.051 56.5511 411.259 56.9634 410.645 56.757C409.715 56.4403 409.039 55.6282 408.702 54.7402C406.951 53.5838 404.916 53.1024 402.89 52.7031C402 52.5311 400.063 52.1448 400.669 50.8714C399.429 50.307 397.995 49.8323 396.885 49.0132C394.182 49.1233 389.618 50.0048 388.68 46.7351C387.701 47.065 386.04 46.411 384.937 46.5967C383.8 46.7895 382.773 46.2181 382.773 44.9515C362.74 40.7387 342.519 37.146 321.017 34.544ZM298.564 64.8942C302.48 63.3867 305.678 61.3354 309.428 65.0249C312.772 66.0022 317.446 65.0383 320.941 65.5131C322.995 65.7885 324.954 66.8695 326.925 67.4133C328.256 67.5578 329.586 67.4127 330.917 67.4677C331.778 67.5022 333.901 67.6748 333.123 68.9963C336.376 69.3955 339.547 70.1733 342.746 70.8685C345.627 70.8616 348.559 71.3648 350.868 73.1683C352.136 73.2784 353.412 73.3125 354.687 73.3331C355.749 73.3538 356.645 74.0424 356.975 75.0405C357.534 75.1438 358.459 75.3094 358.969 75.0685C361.568 73.8436 363.063 76.5002 364.98 76.9889C367.227 77.5672 370.378 78.882 372.667 78.8269C375.393 78.7608 376.378 79.6692 378.165 80.7551L378.975 81.2356C396.016 90.4871 410.527 102.513 423.357 118.022C433.395 130.151 444.611 140.945 450.691 156.096C464.589 190.714 463.707 230.129 448.279 264.121C440.606 281.027 431.741 297.1 418.684 309.78C387.089 340.467 343.815 349.512 301.141 345.547C273 342.932 251.849 333.061 232.305 312.499L194.768 273C154.453 230.576 169.316 148.248 213.037 102.747C224.591 90.7217 239.054 83.611 253.097 77.2781C255.737 76.0874 257.82 72.989 261.28 73.3052C262.5 73.4222 263.762 73.1686 264.982 73.1823C265.189 70.2225 269.243 71.4944 271.194 70.8545C274.992 69.6086 278.854 68.5218 282.88 68.4116C282.087 66.7802 284.369 67.2894 285.203 66.8971C289.236 64.9972 294.593 66.4224 298.564 64.8942ZM362.443 85.5522C297.564 61.1979 225.012 92.4764 198.27 156.329C171.522 220.181 200.18 293.72 263.107 322.734C326.035 351.749 400.677 325.839 432.017 264.107C463.356 202.374 440.151 126.944 379.512 93.4205C378.644 91.1282 375.444 91.4164 373.893 90.494C372.631 89.8814 371.369 89.2832 370.094 88.712C368.191 86.9515 364.379 87.5356 362.601 85.7342L362.443 85.5522ZM272.333 124.54C292.27 113.018 314.648 112.129 337.28 116.851C374.025 124.526 404.744 152.998 411.383 190.658C414.534 208.487 406.178 225.489 399.125 240.743C383.8 273.874 354.845 293.135 318.562 297.293C302.906 299.09 285.699 301.223 272.718 289.913C250.85 270.866 232.623 245.562 224.846 218.468C223.25 219.358 223.339 217.532 223.106 216.467L223.053 216.258C219.558 204.591 221.916 192.537 223.619 180.629C223.75 179.755 224.054 177.738 225.35 178.385C225.522 176.981 226.88 175.899 227.225 174.633C227.624 173.174 226.653 171.481 227.536 169.898C228.122 168.845 229.155 166.752 230.899 168.108C234.256 156.998 242.764 147.553 252.684 140.215C259.481 135.19 265.087 128.733 272.333 124.54ZM380.016 149.363C360.016 126.833 329.483 119.598 299.15 126.302C274.842 131.671 251.637 151.022 240.965 176.732C237.318 185.515 230.803 194.19 231.348 204.509C232.569 227.734 242.937 251.145 260.468 266.537C291.132 293.452 344.29 294.601 372.693 265.896C401.518 236.774 409.975 184.076 380.719 150.154L380.016 149.363ZM278.267 154.292C310.138 133.015 348.633 133.655 371.845 165.443C390.383 190.83 388.992 224.767 366.111 247.118C363.905 249.273 359.74 250.373 356.486 248.356C377.209 221.111 381.683 186.563 350.854 164.109C340.431 156.516 329.304 146.713 314.723 147.669C294.579 148.991 274.207 162.456 265.135 180.464C252.119 206.284 263.97 235.69 287.271 249.919C296.639 255.646 304.83 260.754 314.97 260.644C318.245 260.045 321.72 260.809 324.94 260.672L332.764 260.334C333.694 257.877 336.376 257.237 338.348 256.363C340.609 255.365 344.835 256.989 344.711 259.914C344.504 264.939 339.046 264.348 336.743 264.926C333.599 265.718 330.696 268.436 327.118 268.044C327.869 269.331 325.795 269.544 324.94 269.565C315.619 269.806 306.333 270.253 297.02 269.641C296.212 269.589 294.368 269.363 294.748 268.274L294.868 268.038C278.55 262.73 261.826 252.803 253.643 236.275C238.848 206.401 251.885 171.914 278.267 154.292ZM628.927 21.4448C627.576 0.979817 600.849 -2.64898 583.193 1.76335C595.375 19.3648 605.391 36.1618 613.609 55.5254C617.297 64.2195 621.69 72.1287 628.57 79.976C630.583 59.6213 630.251 41.5105 628.927 21.4448ZM40.0819 0.696634C33.3465 0.324916 26.5967 -0.329323 18.8066 1.61874C-6.15556 7.86928 1.36477 38.9076 2.41277 61.6303C11.9539 43.5471 19.4828 25.7672 32.8156 10.2722C35.3939 7.27785 39.5441 6.06588 40.0819 0.696634Z" fill="url(#paint0_linear_1864_18239)"/>
<defs>
<linearGradient id="paint0_linear_1864_18239" x1="315" y1="87.4" x2="315" y2="414" gradientUnits="userSpaceOnUse">
<stop stop-color="white"/>
<stop offset="1" stop-color="white" stop-opacity="0"/>
</linearGradient>
</defs>
</svg>
